{"asset":{"version":"2.0","generator":"StLouis3DWorld"},"scenes":[{"nodes":[0]}],"scene":0,"nodes":[{"mesh":0}],"meshes":[{"primitives":[{"attributes":{"POSITION":0},"indices":1,"material":0}]}],"materials":[{"pbrMetallicRoughness":{"baseColorFactor":[0.24,0.78,1,1],"metallicFactor":0.15,"roughnessFactor":0.36},"emissiveFactor":[0.02,0.16,0.22]}],"buffers":[{"uri":"data:application/octet-stream;base64,","byteLength":216}],"bufferViews":[{"buffer":0,"byteOffset":0,"byteLength":156,"target":34962},{"buffer":0,"byteOffset":156,"byteLength":60,"target":34963}],"accessors":[{"bufferView":0,"byteOffset":0,"componentType":5126,"count":13,"type":"VEC3","min":[-1.28,-1.35,0],"max":[1.65,1.35,0.18]},{"bufferView":1,"byteOffset":0,"componentType":5123,"count":30,"type":"SCALAR"}]}
